<?xml version="1.0" encoding="UTF-8"?><svg xmlns="http://www.w3.org/2000/svg" viewBox="0 0 2200 2200"><defs><style>.cls-1{fill:#fff;}.cls-2{fill:#ffcb1f;}</style></defs><g id="Background"><rect class="cls-1" width="2200" height="2200"/></g><g id="Objects"><path class="cls-2" d="m2087.57,383.64c-15.93-40.26-56.59-67.12-98.64-65.27-25.54,1.1-52,20.72-67.4,49.97-17.9,33.99-16.84,71.61,2.9,103.2h0c.97,1.56,2.25,3.78,3.59,6.13,2.59,4.53,5.65,9.85,9.29,15.34-120.39,89.8-229.69,195.08-325,313.26-56.74,70.35-107.98,144.55-153.3,221.93,23.23-170.86,31.29-343.66,24.07-516.07,23.42-6.48,43.06-21.03,54.75-40.89,20.08-34.11,12.91-74.67-2.24-97.91-14.21-21.8-38.24-36.4-65.92-40.04-27.67-3.64-54.66,4.24-74.03,21.62-19.37,17.39-30.12,43.36-29.48,71.27.64,27.91,12.56,53.37,32.7,69.85,2.29,1.88,4.69,3.61,7.15,5.23-115.71,180.2-212.01,372.27-287.14,572.7-22.85-75.47-59.24-145.97-92.64-210.67l-198.67-384.94c14.72-7.5,27.9-18.47,37.89-32.54,16.15-22.76,22.53-53.98,15.88-77.68-4.5-16.05-14.71-28.22-28.75-34.27-75.4-32.49-117.2-14.66-138.98,6.02-18.28,17.35-26.94,42.87-23.77,70.02,3.36,28.8,19.38,54.16,42.86,67.83,7.65,4.45,15.83,7.62,24.27,9.65-16.21,199.82-41.97,351.71-76.56,536.88-34.56-67.88-82.49-139.83-137.26-204.83-64.39-76.42-167.56-178.44-303.92-247.86,14.3-18.78,21.92-39.17,22.12-59.5.35-34.68-24.1-65.56-56.87-71.84-3.76-.72-7.63-.73-11.39-.02-21.81,4.09-48.95,9.19-72.41,28.23-23.64,19.2-43.64,57.55-31.66,96.41,9.56,31.01,38.85,52.63,70.57,52.63,1.25,0,2.51-.03,3.76-.1,2.55-.14,5.09-.43,7.62-.82,159.26,381.5,236.72,662.65,273.74,832.47,40.9,187.61,42.63,283.5,42.64,284.41.09,8.33,3.58,16.27,9.67,21.97,6.08,5.7,14.2,8.66,22.55,8.22,6.73-.36,678.19-35.61,1054.31,9.27,1.22.15,2.44.22,3.65.22,13.46,0,25.54-8.89,29.36-22.1,116.49-403.45,236.92-820.47,386.85-1219.97,1.89.15,3.79.23,5.69.23,24.59,0,49.79-12.26,68.13-33.77,27-31.67,34.86-76.37,20.02-113.86Zm-651.07,16.79c4.92-4.42,12.18-6.85,20.06-6.85,1.69,0,3.41.11,5.14.34,9.81,1.29,18.28,6.08,22.66,12.8,0,0,0,0,0,0,3.75,5.76,7.83,21.49.77,33.49-4.07,6.92-12.32,12.09-22.06,13.83-9.73,1.74-19.26-.26-25.48-5.35-6.22-5.09-10.06-14.02-10.29-23.91-.23-9.89,3.21-18.99,9.18-24.36Zm-608.1-10.4h0s-.01,0-.02,0c0,0,.01,0,.02,0Zm-72.67-5.8c5.45-5.18,13.36-7.1,22.11-7.1,15.35,0,33.28,5.93,45.04,10.61.09,5.51-1.98,15.23-7.27,22.69-11.77,16.59-36.61,23.47-52.12,14.44-6.72-3.91-11.78-12.57-12.89-22.06-.43-3.71-.8-12.94,5.14-18.58Zm-608.26,162.6c-3.15-10.22,3.54-24.24,11.77-30.92,9.5-7.71,22.94-11.23,36.73-13.99,2.4,2.17,4.27,6.06,4.24,9.53-.11,11.11-8.48,22.13-13.46,27.71-9.35,10.48-19.08,16.73-26.69,17.14-3.95.21-10.46-2.58-12.59-9.47Zm1407.82,1162.42c-144.78-15.42-326.46-20.24-497.3-20.24-227.2,0-435.18,8.54-511.18,12.06-3.32-43.09-13.06-130.09-41.64-261.88-61.58-283.94-167.5-576.15-255.55-792.36,108.64,63.37,192.33,147.38,246.77,211.99,76.79,91.14,138.95,195.77,166.28,279.9,4.32,13.29,17.1,21.96,31.03,21.07,13.94-.89,25.51-11.11,28.1-24.84l1.68-8.91c38.12-201.74,67.24-355.87,86.67-548.13l161.77,313.43c46.99,91.04,100.25,194.23,107.84,300.91,1.04,14.55,12.21,26.35,26.68,28.17,14.49,1.82,28.22-6.84,32.83-20.68,71.31-214.29,166.97-419.83,284.87-612.28,3.43,209.98-16.27,420.06-58.79,625.84-3.16,15.31,5.73,30.53,20.61,35.3,14.88,4.77,30.96-2.44,37.3-16.73,61.16-138.05,140.78-268.33,236.67-387.21,73.37-90.97,155.29-174.06,244.36-247.94-133.01,366.56-242.84,744.89-349,1112.53Zm465.73-1251.42c-7.04,8.25-16.53,13.22-23.22,12.18-4.96-2.25-13.47-17.11-16.69-22.74-1.65-2.87-3.2-5.59-4.79-8.14-9.1-14.56-6.51-28.61-2.73-37.84,5.51-13.46,15.09-20.81,18.47-21.84,15.54-.45,32.53,11.21,38.67,26.7,6.41,16.21,2.43,37.46-9.7,51.68Z"/></g></svg>